<svg width="20" height="21" viewBox="0 0 20 21" fill="none" xmlns="http://www.w3.org/2000/svg">
<path d="M3.65188 0.21875C1.6289 0.21875 0 1.84765 0 3.87063V16.5669C0 18.5899 1.6289 20.2188 3.65188 20.2188H10.5331V12.4H8.46564V9.58501H10.5331V7.18001C10.5331 5.29051 11.7547 3.55563 14.5688 3.55563C15.7081 3.55563 16.5506 3.66501 16.5506 3.66501L16.4844 6.29377C16.4844 6.29377 15.6251 6.28565 14.6875 6.28565C13.6727 6.28565 13.51 6.75321 13.51 7.52941V9.58503H16.565L16.4319 12.4H13.51V20.2188H16.3481C18.3711 20.2188 20 18.5899 20 16.5669V3.87065C20 1.84767 18.3711 0.21877 16.3481 0.21877H3.65186L3.65188 0.21875Z" fill="#4267B0"/>
</svg>
