<svg width="192" height="41" viewBox="0 0 192 41" fill="none" xmlns="http://www.w3.org/2000/svg">
<g clip-path="url(#clip0)">
<path d="M193 -4H0V46H193V-4Z" fill="#E91C2E"/>
<path d="M177.94 15.2608C177.657 15.3969 177.341 15.4525 177.028 15.4213H176.326V13.9684H177.01C177.325 13.9381 177.643 14.0001 177.922 14.1467C178.014 14.2102 178.088 14.2962 178.136 14.3963C178.184 14.4964 178.205 14.607 178.195 14.7171C178.204 14.819 178.185 14.9213 178.14 15.0137C178.095 15.106 178.026 15.1852 177.94 15.243V15.2608ZM179.061 14.628C179.073 14.4523 179.036 14.2768 178.954 14.12C178.872 13.9632 178.749 13.8308 178.596 13.7367C178.172 13.5131 177.692 13.4112 177.211 13.4426H175.551V17.7476H176.381V15.9204H177.201L178.113 17.7476H179.025L178.022 15.7867C178.314 15.748 178.582 15.609 178.779 15.3945C178.965 15.1809 179.065 14.9085 179.061 14.628Z" fill="white"/>
<path d="M177.101 19.0134C176.428 19.0081 175.772 18.8083 175.215 18.4392C174.658 18.0702 174.225 17.5482 173.971 16.9392C173.717 16.3302 173.652 15.6612 173.786 15.0166C173.92 14.372 174.246 13.7805 174.723 13.3166C175.2 12.8527 175.807 12.5372 176.467 12.4097C177.128 12.2822 177.812 12.3485 178.433 12.6002C179.055 12.8519 179.587 13.2778 179.961 13.8242C180.336 14.3707 180.537 15.0132 180.538 15.671C180.538 16.1095 180.45 16.5437 180.278 16.9487C180.106 17.3537 179.854 17.7216 179.536 18.0313C179.219 18.3409 178.842 18.5863 178.427 18.7533C178.012 18.9203 177.568 19.0056 177.119 19.0045L177.101 19.0134ZM177.119 11.874C176.355 11.8758 175.608 12.0989 174.974 12.5153C174.339 12.9316 173.845 13.5224 173.554 14.2131C173.263 14.9038 173.187 15.6634 173.338 16.3959C173.488 17.1284 173.857 17.8009 174.398 18.3285C174.939 18.8562 175.628 19.2152 176.377 19.3603C177.127 19.5054 177.904 19.43 178.61 19.1438C179.316 18.8575 179.919 18.3731 180.343 17.7518C180.768 17.1305 180.994 16.4002 180.994 15.6532C180.987 14.65 180.573 13.6907 179.843 12.9856C179.113 12.2804 178.127 11.8871 177.101 11.8918L177.119 11.874Z" fill="white"/>
<path d="M162.512 22.6677C162.67 22.0758 163.024 21.5518 163.519 21.1778C164.014 20.8037 164.622 20.6008 165.247 20.6008C165.873 20.6008 166.481 20.8037 166.976 21.1778C167.471 21.5518 167.825 22.0758 167.983 22.6677H162.512ZM172.396 24.8514C172.396 20.3949 169.706 17.5962 165.102 17.5962C160.743 17.5962 157.707 20.2255 157.707 24.5662C157.707 29.0673 161.008 31.5095 165.448 31.5095C168.484 31.5095 171.493 30.1012 172.232 27.0529H167.673C167.45 27.4427 167.118 27.7622 166.716 27.9737C166.314 28.1853 165.858 28.2802 165.402 28.2473C164.999 28.2986 164.589 28.2585 164.203 28.13C163.818 28.0016 163.468 27.7882 163.181 27.5065C162.894 27.2247 162.676 26.8821 162.546 26.5052C162.416 26.1282 162.376 25.7271 162.43 25.3327H172.414L172.396 24.8514Z" fill="white"/>
<path d="M156.157 18.4428C154.766 17.8519 153.26 17.563 151.743 17.5961C148.835 17.5961 145.862 19.0043 145.862 22.2219C145.862 24.5661 147.358 25.288 148.835 25.6624C150.312 26.0367 151.807 26.0991 151.807 27.0974C151.807 27.8193 150.895 28.1045 150.303 28.1045C148.961 27.9942 147.672 27.5425 146.564 26.7943L144.868 30.0119C146.483 30.9853 148.342 31.5035 150.239 31.5093C153.348 31.5093 156.549 30.0743 156.549 26.6606C156.549 24.2184 154.889 23.2202 152.673 22.7834C151.999 22.6587 150.531 22.5339 150.531 21.6248C150.531 20.9652 151.443 20.7334 151.999 20.7334C152.888 20.7533 153.761 20.9697 154.552 21.3663L156.157 18.425" fill="white"/>
<path d="M129.55 18.0508V25.8943C129.55 30.2082 132.65 31.5184 136.653 31.5184C140.656 31.5184 143.72 30.2082 143.72 25.8943V18.0508H139.015V25.0208C139.015 26.6786 138.595 27.8373 136.653 27.8373C134.711 27.8373 134.282 26.6786 134.282 25.0208V18.0508H129.55Z" fill="white"/>
<path d="M119.62 27.4805C119.22 27.5088 118.817 27.4536 118.44 27.3184C118.063 27.1833 117.719 26.9713 117.432 26.6966C117.145 26.4218 116.921 26.0906 116.775 25.7249C116.629 25.3591 116.564 24.9671 116.584 24.5749C116.584 23.783 116.906 23.0235 117.479 22.4636C118.052 21.9036 118.828 21.589 119.639 21.589C120.449 21.589 121.226 21.9036 121.799 22.4636C122.371 23.0235 122.693 23.783 122.693 24.5749C122.713 24.97 122.646 25.3646 122.497 25.7323C122.348 26.1001 122.12 26.4326 121.83 26.7076C121.539 26.9826 121.191 27.1938 120.81 27.3271C120.429 27.4604 120.024 27.5127 119.62 27.4805ZM122.529 18.0416V19.2895C121.996 18.7385 121.35 18.3031 120.634 18.0113C119.918 17.7196 119.147 17.5781 118.371 17.596C114.441 17.596 111.688 20.7869 111.688 24.5392C111.651 25.4328 111.798 26.3244 112.119 27.1616C112.44 27.9989 112.93 28.7648 113.559 29.4143C114.187 30.0638 114.943 30.5838 115.78 30.9436C116.618 31.3034 117.52 31.4957 118.435 31.5092C119.213 31.5485 119.989 31.3979 120.692 31.0712C121.396 30.7444 122.005 30.2518 122.465 29.6375L122.529 31.0725H127.261V18.0416H122.529Z" fill="white"/>
<path d="M105.259 18.0418H100.527V31.0726H105.259V25.8229C105.259 23.5679 105.898 21.8833 108.524 21.8833C109.22 21.8455 109.915 21.9869 110.539 22.2933V17.8368H109.627C108.757 17.7925 107.893 17.9858 107.129 18.3952C106.366 18.8045 105.734 19.4136 105.305 20.1542V18.0418" fill="white"/>
<path d="M86.1752 19.8245H86.1387V11.9097H81.0234V31.0727H86.1387V22.7658H86.1752L92.7676 31.0727H99.3873L90.8801 20.9831L98.6761 11.9097H92.3481L86.1752 19.8245Z" fill="white"/>
<path d="M64.6655 12.1591V31.0726H69.3978V24.3789C69.3978 22.8458 70.0087 21.2861 71.8597 21.2861C73.7107 21.2861 74.0025 22.8548 74.0025 24.3789V31.0726H78.7439V23.0954C78.7439 19.7798 77.1118 17.5872 73.7198 17.5872C72.8825 17.554 72.0506 17.7327 71.3047 18.1059C70.5587 18.4791 69.9239 19.0341 69.4617 19.7174H69.3978V11.9185H64.6655V12.1591Z" fill="white"/>
<path d="M62.3862 18.3537C61.424 17.8611 60.354 17.6042 59.2678 17.605C58.2896 17.5635 57.3131 17.7181 56.3984 18.0593C55.4836 18.4005 54.6499 18.9211 53.9487 19.5891C53.2475 20.257 52.6935 21.0582 52.3208 21.9432C51.9482 22.8283 51.7648 23.7785 51.7819 24.7354C51.7923 25.6544 51.9904 26.5622 52.3647 27.4053C52.7389 28.2484 53.2818 29.0099 53.9613 29.6451C54.6408 30.2803 55.4434 30.7763 56.3217 31.1041C57.2001 31.4319 58.1367 31.5848 59.0763 31.5539C60.2399 31.5695 61.3904 31.3128 62.4318 30.8052V26.8478C61.7764 27.413 60.9351 27.7293 60.0611 27.7391C59.1917 27.7521 58.3527 27.427 57.7285 26.8353C57.1044 26.2436 56.7463 25.4337 56.733 24.5839C56.7197 23.7341 57.0523 22.9139 57.6576 22.3038C58.2629 21.6937 59.0914 21.3436 59.9608 21.3306C60.8648 21.3675 61.7307 21.6966 62.4227 22.2665V18.3537" fill="white"/>
<path d="M50.0857 18.0239H45.3352V31.0726H50.0857V18.0239Z" fill="white"/>
<path d="M50.0766 11.9185H45.3352V16.5532H50.0766V11.9185Z" fill="white"/>
<path d="M37.7762 18.0418H33.0439V31.0727H37.7762V25.8229C37.7762 23.5679 38.4145 21.8833 41.077 21.8833C41.762 21.8468 42.4447 21.9883 43.0556 22.2933V17.8368H42.1438C41.2754 17.7905 40.4111 17.9841 39.65 18.3955C38.8889 18.8069 38.2617 19.4195 37.8401 20.1631H37.7762V18.0418Z" fill="white"/>
<path d="M30.7646 16.1345V11.9097H19.604V31.0727H30.7646V26.8568H24.6919V23.5412H30.4454V19.3253H24.6919V16.1345H30.7646Z" fill="white"/>
</g>
<defs>
<clipPath id="clip0">
<rect width="192" height="41" fill="white"/>
</clipPath>
</defs>
</svg>
