<svg width="21" height="21" viewBox="0 0 21 21" fill="none" xmlns="http://www.w3.org/2000/svg">
<path fill-rule="evenodd" clip-rule="evenodd" d="M6.86409 0.27875C7.93045 0.229659 8.27045 0.21875 10.9868 0.21875C13.7032 0.21875 14.0432 0.230568 15.1086 0.27875C16.1741 0.326932 16.9014 0.496932 17.5377 0.743295C18.2041 0.995114 18.8086 1.38875 19.3086 1.89784C19.8177 2.39693 20.2105 3.00057 20.4614 3.66784C20.7086 4.3042 20.8777 5.03148 20.9268 6.09511C20.9759 7.1633 20.9868 7.5033 20.9868 10.2188C20.9868 12.9351 20.975 13.2751 20.9268 14.3415C20.8786 15.4051 20.7086 16.1324 20.4614 16.7688C20.2104 17.4361 19.8171 18.0408 19.3086 18.5406C18.8086 19.0497 18.2041 19.4424 17.5377 19.6933C16.9014 19.9406 16.1741 20.1097 15.1105 20.1588C14.0432 20.2078 13.7032 20.2188 10.9868 20.2188C8.27045 20.2188 7.93045 20.2069 6.86409 20.1588C5.80045 20.1106 5.07318 19.9406 4.43682 19.6933C3.76947 19.4424 3.16483 19.049 2.665 18.5406C2.15625 18.0412 1.76256 17.4368 1.51136 16.7697C1.265 16.1333 1.09591 15.406 1.04682 14.3424C0.997725 13.2742 0.986816 12.9342 0.986816 10.2188C0.986816 7.50239 0.998635 7.16239 1.04682 6.09693C1.095 5.03148 1.265 4.3042 1.51136 3.66784C1.76293 3.00064 2.15692 2.39631 2.66591 1.89693C3.16504 1.3883 3.76906 0.994608 4.43591 0.743295C5.07227 0.496932 5.79954 0.327841 6.86318 0.27875H6.86409ZM15.0277 2.07875C13.9732 2.03057 13.6568 2.02057 10.9868 2.02057C8.31682 2.02057 8.00045 2.03057 6.94591 2.07875C5.97045 2.1233 5.44136 2.28602 5.08863 2.4233C4.62227 2.60511 4.28863 2.82057 3.93863 3.17057C3.60686 3.49334 3.35153 3.88628 3.19136 4.32057C3.05409 4.6733 2.89136 5.20239 2.84682 6.17784C2.79863 7.23239 2.78863 7.54875 2.78863 10.2188C2.78863 12.8888 2.79863 13.2051 2.84682 14.2597C2.89136 15.2351 3.05409 15.7642 3.19136 16.1169C3.35136 16.5506 3.60682 16.9442 3.93863 17.2669C4.26136 17.5988 4.655 17.8542 5.08863 18.0142C5.44136 18.1515 5.97045 18.3142 6.94591 18.3588C8.00045 18.4069 8.31591 18.4169 10.9868 18.4169C13.6577 18.4169 13.9732 18.4069 15.0277 18.3588C16.0032 18.3142 16.5323 18.1515 16.885 18.0142C17.3514 17.8324 17.685 17.6169 18.035 17.2669C18.3668 16.9442 18.6223 16.5506 18.7823 16.1169C18.9195 15.7642 19.0823 15.2351 19.1268 14.2597C19.175 13.2051 19.185 12.8888 19.185 10.2188C19.185 7.54875 19.175 7.23239 19.1268 6.17784C19.0823 5.20239 18.9195 4.6733 18.7823 4.32057C18.6005 3.8542 18.385 3.52057 18.035 3.17057C17.7122 2.83881 17.3193 2.58349 16.885 2.4233C16.5323 2.28602 16.0032 2.1233 15.0277 2.07875ZM9.70954 13.3015C10.4229 13.5984 11.2172 13.6385 11.9568 13.4149C12.6963 13.1912 13.3354 12.7178 13.7646 12.0753C14.1939 11.4329 14.3869 10.6614 14.3105 9.89248C14.2341 9.1236 13.8932 8.40509 13.3459 7.85966C12.997 7.511 12.5752 7.24403 12.1108 7.07797C11.6463 6.91192 11.1508 6.8509 10.66 6.89931C10.1691 6.94772 9.69514 7.10437 9.27209 7.35796C8.84905 7.61155 8.48749 7.95579 8.21346 8.36589C7.93942 8.77598 7.75972 9.24174 7.68729 9.72962C7.61486 10.2175 7.6515 10.7154 7.79458 11.1874C7.93766 11.6594 8.18362 12.0939 8.51474 12.4594C8.84587 12.825 9.25393 13.1126 9.70954 13.3015ZM7.35227 6.5842C7.82957 6.10691 8.3962 5.7283 9.01981 5.46999C9.64343 5.21168 10.3118 5.07873 10.9868 5.07873C11.6618 5.07873 12.3302 5.21168 12.9538 5.46999C13.5774 5.7283 14.1441 6.10691 14.6214 6.5842C15.0987 7.0615 15.4773 7.62813 15.7356 8.25175C15.9939 8.87537 16.1268 9.54375 16.1268 10.2188C16.1268 10.8937 15.9939 11.5621 15.7356 12.1858C15.4773 12.8094 15.0987 13.376 14.6214 13.8533C13.6574 14.8172 12.35 15.3588 10.9868 15.3588C9.6236 15.3588 8.31621 14.8172 7.35227 13.8533C6.38833 12.8894 5.84679 11.582 5.84679 10.2188C5.84679 8.85553 6.38833 7.54815 7.35227 6.5842ZM17.2668 5.8442C17.3851 5.73263 17.4798 5.59846 17.5453 5.44964C17.6108 5.30081 17.6457 5.14036 17.6481 4.97778C17.6505 4.8152 17.6202 4.65379 17.5591 4.50312C17.4979 4.35245 17.4072 4.21558 17.2922 4.1006C17.1773 3.98563 17.0404 3.89489 16.8897 3.83377C16.739 3.77264 16.5776 3.74236 16.4151 3.74473C16.2525 3.7471 16.092 3.78207 15.9432 3.84756C15.7944 3.91306 15.6602 4.00775 15.5486 4.12602C15.3316 4.35605 15.2128 4.66159 15.2175 4.97778C15.2221 5.29397 15.3497 5.59591 15.5733 5.81952C15.7969 6.04312 16.0989 6.17078 16.4151 6.17539C16.7313 6.18 17.0368 6.0612 17.2668 5.8442Z" fill="#F33177"/>
</svg>
