<svg width="28" height="17" viewBox="0 0 28 17" fill="none" xmlns="http://www.w3.org/2000/svg">
<path fill-rule="evenodd" clip-rule="evenodd" d="M24.9111 11.4344C24.9111 11.4344 27.1738 13.6692 27.7336 14.7033C27.7444 14.7182 27.7529 14.7347 27.7587 14.7522C27.9868 15.1343 28.0428 15.4337 27.9309 15.6548C27.7419 16.02 27.1024 16.2034 26.8856 16.2187H22.8863C22.6078 16.2187 22.0285 16.146 21.3232 15.659C20.7845 15.2826 20.2485 14.6627 19.7294 14.0568C18.9541 13.157 18.2838 12.3762 17.6052 12.3762C17.5194 12.376 17.4343 12.3902 17.3533 12.4182C16.8397 12.5805 16.1876 13.3123 16.1876 15.2616C16.1876 15.8717 15.7063 16.2187 15.369 16.2187H13.5373C12.9132 16.2187 9.66394 16.0005 6.7827 12.9625C3.25218 9.24306 0.0812875 1.78181 0.0505021 1.71604C-0.146804 1.23327 0.267399 0.970193 0.715186 0.970193H4.75367C5.29521 0.970193 5.47153 1.29764 5.59467 1.5915C5.7374 1.92874 6.26635 3.2777 7.13394 4.79318C8.53887 7.25881 9.40226 8.26213 10.0921 8.26213C10.2217 8.26251 10.3492 8.22872 10.4616 8.16418C11.3627 7.66881 11.1948 4.45034 11.1528 3.78706C11.1528 3.65832 11.1514 2.34994 10.6896 1.71744C10.3594 1.26405 9.79687 1.08774 9.45683 1.02337C9.54779 0.89183 9.7409 0.690326 9.98858 0.571382C10.6057 0.263529 11.721 0.21875 12.8278 0.21875H13.4421C14.6428 0.235542 14.9534 0.312505 15.39 0.423053C16.2688 0.632953 16.2856 1.20248 16.2086 3.14196C16.1862 3.6961 16.1624 4.3202 16.1624 5.05485C16.1624 5.21158 16.1555 5.38649 16.1555 5.56421C16.1289 6.55914 16.0939 7.68001 16.7963 8.14039C16.8875 8.19714 16.9927 8.2272 17.1 8.22715C17.3435 8.22715 18.0725 8.22715 20.0498 4.83376C20.9174 3.33507 21.5891 1.56771 21.6352 1.43477C21.6744 1.36061 21.792 1.15211 21.9347 1.06815C22.0362 1.01413 22.15 0.98714 22.2649 0.989784H27.0157C27.5334 0.989784 27.8847 1.06815 27.9532 1.26405C28.068 1.5817 27.9309 2.55144 25.7619 5.48445C25.3967 5.97282 25.0762 6.39542 24.7949 6.76484C22.8289 9.34521 22.8289 9.47535 24.9111 11.4344Z" fill="#5EA7DC"/>
</svg>
