<svg width="25" height="18" viewBox="0 0 25 18" fill="none" xmlns="http://www.w3.org/2000/svg">
<path d="M13.0641 0.21875H13.1976C14.4307 0.22325 20.6785 0.268253 22.3632 0.721282C22.8724 0.859543 23.3365 1.12904 23.709 1.50284C24.0815 1.87664 24.3493 2.34166 24.4858 2.85141C24.6373 3.42145 24.7438 4.176 24.8158 4.95455L24.8308 5.11056L24.8638 5.50058L24.8758 5.65659C24.9733 7.02768 24.9853 8.31176 24.9868 8.59227V8.70478C24.9853 8.9958 24.9718 10.3669 24.8638 11.795L24.8518 11.9525L24.8383 12.1085C24.7633 12.9665 24.6523 13.8186 24.4858 14.4456C24.3497 14.9556 24.082 15.4208 23.7095 15.7947C23.3369 16.1686 22.8726 16.4379 22.3632 16.5758C20.623 17.0438 14.0091 17.0768 13.0926 17.0783H12.8796C12.416 17.0783 10.4989 17.0693 8.48879 17.0003L8.23377 16.9913L8.10326 16.9853L7.84675 16.9748L7.59023 16.9643C5.92513 16.8908 4.33953 16.7723 3.60898 16.5743C3.09968 16.4366 2.63552 16.1674 2.26298 15.7938C1.89045 15.4202 1.62263 14.9553 1.48635 14.4456C1.31984 13.8201 1.20883 12.9665 1.13383 12.1085L1.12182 11.951L1.10982 11.795C1.03579 10.7785 0.994767 9.75991 0.986816 8.74078L0.986816 8.55777C0.989817 8.23525 1.00182 7.12068 1.08282 5.8906L1.09332 5.73609L1.09782 5.65809L1.10982 5.50208L1.14283 5.11206L1.15783 4.95605C1.22983 4.1775 1.33634 3.42145 1.48785 2.85292C1.6239 2.34295 1.89162 1.87772 2.26417 1.50385C2.63672 1.12999 3.101 0.860629 3.61048 0.722782C4.34103 0.527769 5.92663 0.407762 7.59173 0.332757L7.84675 0.322257L8.10476 0.313256L8.23377 0.308756L8.49029 0.298255C9.91793 0.251814 11.3462 0.22581 12.7746 0.22025H13.0641V0.21875ZM10.5874 5.03405V12.2615L16.8233 8.64928L10.5874 5.03405Z" fill="#E25050"/>
</svg>
